<svg width="960" height="480" viewBox="0 0 960 480" xmlns="http://www.w3.org/2000/svg">
  <!-- Background -->
  <rect width="960" height="480" fill="#f7f7f7"/>
  
  <!-- Purple gradient circles -->
  <defs>
    <radialGradient id="purpleGradient1" cx="50%" cy="50%" r="50%">
      <stop offset="0%" style="stop-color:#8B5CF6;stop-opacity:1" />
      <stop offset="100%" style="stop-color:#6366F1;stop-opacity:1" />
    </radialGradient>
    <radialGradient id="purpleGradient2" cx="50%" cy="50%" r="50%">
      <stop offset="0%" style="stop-color:#A855F7;stop-opacity:1" />
      <stop offset="100%" style="stop-color:#7C3AED;stop-opacity:1" />
    </radialGradient>
  </defs>
  
  <!-- Left circle with star -->
  <circle cx="220" cy="240" r="120" fill="url(#purpleGradient1)"/>
  <circle cx="220" cy="240" r="75" fill="white"/>
  <polygon points="220,190 235,225 270,225 245,250 255,285 220,265 185,285 195,250 170,225 205,225" fill="#8B5CF6"/>
  
  <!-- Right circle with trophy -->
  <circle cx="390" cy="240" r="120" fill="url(#purpleGradient2)"/>
  <circle cx="390" cy="240" r="75" fill="white"/>
  <!-- Trophy icon -->
  <path d="M365 210 h50 v10 h-50 z M375 220 v30 h30 v-30 z M385 250 v15 h10 v-15 z M380 265 h20 v10 h-20 z M355 220 h10 v20 h-10 z M425 220 h10 v20 h-10 z" fill="#A855F7"/>
  
  <!-- Text -->
  <text x="540" y="290" font-family="Arial, sans-serif" font-size="90" font-weight="bold" fill="#1a1a1a">
    Gami
  </text>
  <text x="540" y="340" font-family="Arial, sans-serif" font-size="60" font-weight="bold" fill="#1a1a1a">
    Protocol
  </text>
</svg>